<svg width="980" height="980" viewBox="0 0 980 980" fill="none" xmlns="http://www.w3.org/2000/svg">
<rect x="238" y="239" width="50" height="50" fill="#F44336"/>
<rect x="288" y="189" width="50" height="50" fill="#F44336"/>
<rect x="338" y="189" width="50" height="50" fill="#F44336"/>
<rect x="688" y="239" width="50" height="50" fill="#D32F2F"/>
<rect x="738" y="289" width="50" height="50" fill="#D32F2F"/>
<rect x="788" y="339" width="50" height="50" fill="#C62828"/>
<rect x="838" y="389" width="50" height="50" fill="#C62828"/>
<rect x="188" y="289" width="50" height="50" fill="#F44336"/>
<rect x="138" y="339" width="50" height="50" fill="#F44336"/>
<rect x="88" y="389" width="50" height="50" fill="#F44336"/>
<rect x="138" y="439" width="50" height="50" fill="#F44336"/>
<rect x="188" y="489" width="50" height="50" fill="#F44336"/>
<rect x="238" y="539" width="50" height="50" fill="#E53935"/>
<rect x="288" y="589" width="50" height="50" fill="#E53935"/>
<rect x="338" y="639" width="50" height="50" fill="#D32F2F"/>
<rect x="388" y="689" width="50" height="50" fill="#C62828"/>
<rect x="438" y="739" width="50" height="50" fill="#C62828"/>
<rect x="488" y="739" width="50" height="50" fill="#C62828"/>
<rect x="538" y="689" width="50" height="50" fill="#C62828"/>
<rect x="588" y="639" width="50" height="50" fill="#C62828"/>
<rect x="638" y="589" width="50" height="50" fill="#C62828"/>
<rect x="688" y="539" width="50" height="50" fill="#CD2027"/>
<rect x="738" y="489" width="50" height="50" fill="#C62828"/>
<rect x="788" y="439" width="50" height="50" fill="#C62828"/>
<rect x="238" y="289" width="50" height="50" fill="white"/>
<rect x="188" y="339" width="50" height="50" fill="white"/>
<rect x="188" y="339" width="50" height="50" fill="white"/>
<rect x="238" y="339" width="50" height="50" fill="white"/>
<rect x="288" y="239" width="50" height="50" fill="white"/>
<rect x="288" y="289" width="50" height="50" fill="white"/>
<rect x="338" y="289" width="50" height="50" fill="#F44336"/>
<rect x="388" y="239" width="50" height="50" fill="#F44336"/>
<rect x="438" y="239" width="50" height="50" fill="#F44336"/>
<rect x="388" y="289" width="50" height="50" fill="#F44336"/>
<rect x="488" y="239" width="50" height="50" fill="#F44336"/>
<rect x="538" y="189" width="50" height="50" fill="#F44336"/>
<rect x="488" y="189" width="50" height="50" fill="#F44336"/>
<rect x="438" y="189" width="50" height="50" fill="#F44336"/>
<rect x="388" y="189" width="50" height="50" fill="#F44336"/>
<rect x="438" y="289" width="50" height="50" fill="#F44336"/>
<rect x="338" y="339" width="50" height="50" fill="#F44336"/>
<rect x="338" y="389" width="50" height="50" fill="#F44336"/>
<rect x="388" y="339" width="50" height="50" fill="#F44336"/>
<rect x="288" y="389" width="50" height="50" fill="#F44336"/>
<rect x="538" y="239" width="50" height="50" fill="#E53935"/>
<rect x="638" y="239" width="50" height="50" fill="#E53935"/>
<rect x="588" y="239" width="50" height="50" fill="#E53935"/>
<rect x="588" y="189" width="50" height="50" fill="#E53935"/>
<rect x="638" y="189" width="50" height="50" fill="#E53935"/>
<path fill-rule="evenodd" clip-rule="evenodd" d="M488 289H538V339H488V289Z" fill="#E53935"/>
<path fill-rule="evenodd" clip-rule="evenodd" d="M588 289H638V339H588V289Z" fill="#E53935"/>
<path fill-rule="evenodd" clip-rule="evenodd" d="M538 289H588V339H538V289Z" fill="#E53935"/>
<path fill-rule="evenodd" clip-rule="evenodd" d="M438 339H488V389H438V339Z" fill="#E53935"/>
<path fill-rule="evenodd" clip-rule="evenodd" d="M538 339H588V389H538V339Z" fill="#E53935"/>
<path fill-rule="evenodd" clip-rule="evenodd" d="M488 339H538V389H488V339Z" fill="#E53935"/>
<path fill-rule="evenodd" clip-rule="evenodd" d="M388 389H438V439H388V389Z" fill="#E53935"/>
<path fill-rule="evenodd" clip-rule="evenodd" d="M488 389H538V439H488V389Z" fill="#E53935"/>
<path fill-rule="evenodd" clip-rule="evenodd" d="M438 389H488V439H438V389Z" fill="#E53935"/>
<path fill-rule="evenodd" clip-rule="evenodd" d="M438 439H488V489H438V439Z" fill="#E53935"/>
<rect x="238" y="439" width="50" height="50" fill="#F44336"/>
<rect x="288" y="439" width="50" height="50" fill="#F44336"/>
<rect x="238" y="489" width="50" height="50" fill="#F44336"/>
<rect x="288" y="339" width="50" height="50" fill="#F44336"/>
<rect x="188" y="389" width="50" height="50" fill="#F44336"/>
<rect x="138" y="389" width="50" height="50" fill="#F44336"/>
<rect x="238" y="389" width="50" height="50" fill="#F44336"/>
<rect x="188" y="439" width="50" height="50" fill="#F44336"/>
<rect x="338" y="239" width="50" height="50" fill="white"/>
<path fill-rule="evenodd" clip-rule="evenodd" d="M338 439H388V489H338V439Z" fill="#E53935"/>
<path fill-rule="evenodd" clip-rule="evenodd" d="M638 289H688V339H638V289Z" fill="#D32F2F"/>
<path fill-rule="evenodd" clip-rule="evenodd" d="M688 289H738V339H688V289Z" fill="#D32F2F"/>
<path fill-rule="evenodd" clip-rule="evenodd" d="M588 339H638V389H588V339Z" fill="#D32F2F"/>
<path fill-rule="evenodd" clip-rule="evenodd" d="M638 339H688V389H638V339Z" fill="#D32F2F"/>
<path fill-rule="evenodd" clip-rule="evenodd" d="M738 339H788V389H738V339Z" fill="#C62828"/>
<path fill-rule="evenodd" clip-rule="evenodd" d="M788 389H838V439H788V389Z" fill="#C62828"/>
<path fill-rule="evenodd" clip-rule="evenodd" d="M588 439H638V489H588V439Z" fill="#D32F2F"/>
<path fill-rule="evenodd" clip-rule="evenodd" d="M538 489H588V539H538V489Z" fill="#D32F2F"/>
<path fill-rule="evenodd" clip-rule="evenodd" d="M488 539H538V589H488V539Z" fill="#D32F2F"/>
<path fill-rule="evenodd" clip-rule="evenodd" d="M438 589H488V639H438V589Z" fill="#D32F2F"/>
<path fill-rule="evenodd" clip-rule="evenodd" d="M388 639H438V689H388V639Z" fill="#D32F2F"/>
<path fill-rule="evenodd" clip-rule="evenodd" d="M688 339H738V389H688V339Z" fill="#D32F2F"/>
<path fill-rule="evenodd" clip-rule="evenodd" d="M638 389H688V439H638V389Z" fill="#D32F2F"/>
<path fill-rule="evenodd" clip-rule="evenodd" d="M538 389H588V439H538V389Z" fill="#D32F2F"/>
<path fill-rule="evenodd" clip-rule="evenodd" d="M588 389H638V439H588V389Z" fill="#D32F2F"/>
<path fill-rule="evenodd" clip-rule="evenodd" d="M488 439H538V489H488V439Z" fill="#D32F2F"/>
<path fill-rule="evenodd" clip-rule="evenodd" d="M538 439H588V489H538V439Z" fill="#D32F2F"/>
<path fill-rule="evenodd" clip-rule="evenodd" d="M438 489H488V539H438V489Z" fill="#D32F2F"/>
<path fill-rule="evenodd" clip-rule="evenodd" d="M488 489H538V539H488V489Z" fill="#D32F2F"/>
<path fill-rule="evenodd" clip-rule="evenodd" d="M388 539H438V589H388V539Z" fill="#D32F2F"/>
<path fill-rule="evenodd" clip-rule="evenodd" d="M438 539H488V589H438V539Z" fill="#D32F2F"/>
<path fill-rule="evenodd" clip-rule="evenodd" d="M338 589H388V639H338V589Z" fill="#D32F2F"/>
<path fill-rule="evenodd" clip-rule="evenodd" d="M388 589H438V639H388V589Z" fill="#D32F2F"/>
<path fill-rule="evenodd" clip-rule="evenodd" d="M388 439H438V489H388V439Z" fill="#E53935"/>
<path fill-rule="evenodd" clip-rule="evenodd" d="M288 489H338V539H288V489Z" fill="#E53935"/>
<path fill-rule="evenodd" clip-rule="evenodd" d="M388 489H438V539H388V489Z" fill="#E53935"/>
<path fill-rule="evenodd" clip-rule="evenodd" d="M338 489H388V539H338V489Z" fill="#E53935"/>
<path fill-rule="evenodd" clip-rule="evenodd" d="M288 539H338V589H288V539Z" fill="#E53935"/>
<path fill-rule="evenodd" clip-rule="evenodd" d="M338 539H388V589H338V539Z" fill="#E53935"/>
<path fill-rule="evenodd" clip-rule="evenodd" d="M688 389H738V439H688V389Z" fill="#C62828"/>
<path fill-rule="evenodd" clip-rule="evenodd" d="M738 389H788V439H738V389Z" fill="#C62828"/>
<path fill-rule="evenodd" clip-rule="evenodd" d="M638 439H688V489H638V439Z" fill="#C62828"/>
<path fill-rule="evenodd" clip-rule="evenodd" d="M688 439H738V489H688V439Z" fill="#C62828"/>
<path fill-rule="evenodd" clip-rule="evenodd" d="M588 489H638V539H588V489Z" fill="#C62828"/>
<path fill-rule="evenodd" clip-rule="evenodd" d="M638 489H688V539H638V489Z" fill="#C62828"/>
<path fill-rule="evenodd" clip-rule="evenodd" d="M588 489H638V539H588V489Z" fill="#C62828"/>
<path fill-rule="evenodd" clip-rule="evenodd" d="M638 489H688V539H638V489Z" fill="#C62828"/>
<path fill-rule="evenodd" clip-rule="evenodd" d="M538 539H588V589H538V539Z" fill="#C62828"/>
<path fill-rule="evenodd" clip-rule="evenodd" d="M588 539H638V589H588V539Z" fill="#C62828"/>
<path fill-rule="evenodd" clip-rule="evenodd" d="M488 589H538V639H488V589Z" fill="#C62828"/>
<path fill-rule="evenodd" clip-rule="evenodd" d="M538 589H588V639H538V589Z" fill="#C62828"/>
<path fill-rule="evenodd" clip-rule="evenodd" d="M438 639H488V689H438V639Z" fill="#C62828"/>
<path fill-rule="evenodd" clip-rule="evenodd" d="M488 639H538V689H488V639Z" fill="#C62828"/>
<path fill-rule="evenodd" clip-rule="evenodd" d="M538 639H588V689H538V639Z" fill="#C62828"/>
<path fill-rule="evenodd" clip-rule="evenodd" d="M438 689H488V739H438V689Z" fill="#C62828"/>
<path fill-rule="evenodd" clip-rule="evenodd" d="M488 689H538V739H488V689Z" fill="#C62828"/>
<path fill-rule="evenodd" clip-rule="evenodd" d="M588 589H638V639H588V589Z" fill="#C62828"/>
<path fill-rule="evenodd" clip-rule="evenodd" d="M638 539H688V589H638V539Z" fill="#C62828"/>
<path fill-rule="evenodd" clip-rule="evenodd" d="M688 489H738V539H688V489Z" fill="#C62828"/>
<path fill-rule="evenodd" clip-rule="evenodd" d="M738 439H788V489H738V439Z" fill="#C62828"/>
</svg>
